<svg width="92" height="34" viewBox="0 0 92 34" fill="none" xmlns="http://www.w3.org/2000/svg">
<rect width="92" height="34" rx="17" fill="#2D3134"/>
<path d="M22.6899 20.964H26.1059V22H21.4159V12.242H22.6899V20.964ZM30.8049 22.126C30.0862 22.126 29.4329 21.9627 28.8449 21.636C28.2662 21.3093 27.8089 20.8473 27.4729 20.25C27.1462 19.6433 26.9829 18.9433 26.9829 18.15C26.9829 17.366 27.1509 16.6753 27.4869 16.078C27.8322 15.4713 28.2989 15.0093 28.8869 14.692C29.4749 14.3653 30.1329 14.202 30.8609 14.202C31.5889 14.202 32.2469 14.3653 32.8349 14.692C33.4229 15.0093 33.8849 15.4667 34.2209 16.064C34.5662 16.6613 34.7389 17.3567 34.7389 18.15C34.7389 18.9433 34.5615 19.6433 34.2069 20.25C33.8615 20.8473 33.3902 21.3093 32.7929 21.636C32.1955 21.9627 31.5329 22.126 30.8049 22.126ZM30.8049 21.006C31.2622 21.006 31.6915 20.8987 32.0929 20.684C32.4942 20.4693 32.8162 20.1473 33.0589 19.718C33.3109 19.2887 33.4369 18.766 33.4369 18.15C33.4369 17.534 33.3155 17.0113 33.0729 16.582C32.8302 16.1527 32.5129 15.8353 32.1209 15.63C31.7289 15.4153 31.3042 15.308 30.8469 15.308C30.3802 15.308 29.9509 15.4153 29.5589 15.63C29.1762 15.8353 28.8682 16.1527 28.6349 16.582C28.4015 17.0113 28.2849 17.534 28.2849 18.15C28.2849 18.7753 28.3969 19.3027 28.6209 19.732C28.8542 20.1613 29.1622 20.4833 29.5449 20.698C29.9275 20.9033 30.3475 21.006 30.8049 21.006ZM40.1519 14.188C41.0853 14.188 41.8413 14.4727 42.4199 15.042C42.9986 15.602 43.2879 16.414 43.2879 17.478V22H42.0279V17.66C42.0279 16.8947 41.8366 16.3113 41.4539 15.91C41.0713 15.4993 40.5486 15.294 39.8859 15.294C39.2139 15.294 38.6773 15.504 38.2759 15.924C37.8839 16.344 37.6879 16.9553 37.6879 17.758V22H36.4139V14.328H37.6879V15.42C37.9399 15.028 38.2806 14.7247 38.7099 14.51C39.1486 14.2953 39.6293 14.188 40.1519 14.188ZM44.893 18.136C44.893 17.352 45.0517 16.666 45.369 16.078C45.6863 15.4807 46.1203 15.0187 46.671 14.692C47.231 14.3653 47.8563 14.202 48.547 14.202C49.1443 14.202 49.6997 14.342 50.213 14.622C50.7263 14.8927 51.1183 15.252 51.389 15.7V11.64H52.677V22H51.389V20.558C51.137 21.0153 50.7637 21.3933 50.269 21.692C49.7743 21.9813 49.1957 22.126 48.533 22.126C47.8517 22.126 47.231 21.958 46.671 21.622C46.1203 21.286 45.6863 20.8147 45.369 20.208C45.0517 19.6013 44.893 18.9107 44.893 18.136ZM51.389 18.15C51.389 17.5713 51.2723 17.0673 51.039 16.638C50.8057 16.2087 50.4883 15.882 50.087 15.658C49.695 15.4247 49.261 15.308 48.785 15.308C48.309 15.308 47.875 15.42 47.483 15.644C47.091 15.868 46.7783 16.1947 46.545 16.624C46.3117 17.0533 46.195 17.5573 46.195 18.136C46.195 18.724 46.3117 19.2373 46.545 19.676C46.7783 20.1053 47.091 20.4367 47.483 20.67C47.875 20.894 48.309 21.006 48.785 21.006C49.261 21.006 49.695 20.894 50.087 20.67C50.4883 20.4367 50.8057 20.1053 51.039 19.676C51.2723 19.2373 51.389 18.7287 51.389 18.15ZM58.176 22.126C57.4573 22.126 56.804 21.9627 56.216 21.636C55.6373 21.3093 55.18 20.8473 54.844 20.25C54.5173 19.6433 54.354 18.9433 54.354 18.15C54.354 17.366 54.522 16.6753 54.858 16.078C55.2033 15.4713 55.67 15.0093 56.258 14.692C56.846 14.3653 57.504 14.202 58.232 14.202C58.96 14.202 59.618 14.3653 60.206 14.692C60.794 15.0093 61.256 15.4667 61.592 16.064C61.9373 16.6613 62.11 17.3567 62.11 18.15C62.11 18.9433 61.9326 19.6433 61.578 20.25C61.2326 20.8473 60.7613 21.3093 60.164 21.636C59.5666 21.9627 58.904 22.126 58.176 22.126ZM58.176 21.006C58.6333 21.006 59.0626 20.8987 59.464 20.684C59.8653 20.4693 60.1873 20.1473 60.43 19.718C60.682 19.2887 60.808 18.766 60.808 18.15C60.808 17.534 60.6866 17.0113 60.444 16.582C60.2013 16.1527 59.884 15.8353 59.492 15.63C59.1 15.4153 58.6753 15.308 58.218 15.308C57.7513 15.308 57.322 15.4153 56.93 15.63C56.5473 15.8353 56.2393 16.1527 56.006 16.582C55.7726 17.0113 55.656 17.534 55.656 18.15C55.656 18.7753 55.768 19.3027 55.992 19.732C56.2253 20.1613 56.5333 20.4833 56.916 20.698C57.2986 20.9033 57.7186 21.006 58.176 21.006ZM67.523 14.188C68.4564 14.188 69.2124 14.4727 69.791 15.042C70.3697 15.602 70.659 16.414 70.659 17.478V22H69.399V17.66C69.399 16.8947 69.2077 16.3113 68.825 15.91C68.4424 15.4993 67.9197 15.294 67.257 15.294C66.585 15.294 66.0484 15.504 65.647 15.924C65.255 16.344 65.059 16.9553 65.059 17.758V22H63.785V14.328H65.059V15.42C65.311 15.028 65.6517 14.7247 66.081 14.51C66.5197 14.2953 67.0004 14.188 67.523 14.188Z" fill="white"/>
</svg>
